<svg width="20" height="20" viewBox="0 0 20 20" fill="none" xmlns="http://www.w3.org/2000/svg">
<path fill-rule="evenodd" clip-rule="evenodd" d="M12.865 10.4151C12.865 8.96769 11.6913 7.79401 10.244 7.79401C8.79661 7.79401 7.62292 8.96769 7.62292 10.4151C7.62292 11.8624 8.79661 13.0361 10.244 13.0361C11.6913 13.0361 12.865 11.8624 12.865 10.4151Z" stroke="#A0ACBD" stroke-width="1.5" stroke-linecap="round" stroke-linejoin="round"/>
<path fill-rule="evenodd" clip-rule="evenodd" d="M10.2437 16.8334C16.9481 16.8334 17.7464 14.8246 17.7464 10.472C17.7464 7.42113 17.3428 5.78867 14.8016 5.08692C14.5683 5.01324 14.3095 4.87289 14.0999 4.64218C13.7613 4.27113 13.5139 3.13166 12.6964 2.78692C11.8788 2.44306 8.59547 2.45885 7.79109 2.78692C6.98758 3.11587 6.72618 4.27113 6.38758 4.64218C6.17793 4.87289 5.92004 5.01324 5.68583 5.08692C3.1446 5.78867 2.74109 7.42113 2.74109 10.472C2.74109 14.8246 3.53933 16.8334 10.2437 16.8334Z" stroke="#A0ACBD" stroke-width="1.5" stroke-linecap="round" stroke-linejoin="round"/>
<path d="M14.337 7.49998H14.3445" stroke="#A0ACBD" stroke-width="1.5" stroke-linecap="round" stroke-linejoin="round"/>
</svg>
