<svg width="25" height="24" viewBox="0 0 25 24" fill="none" xmlns="http://www.w3.org/2000/svg">
<path d="M12.4951 16.6768V14.1398" stroke="#A0ACBD" stroke-width="1.5" stroke-linecap="round" stroke-linejoin="round"/>
<path fill-rule="evenodd" clip-rule="evenodd" d="M18.6899 5.3302C20.3799 5.3302 21.7399 6.7002 21.7399 8.3902V11.8302C19.2799 13.2702 16.0299 14.1402 12.4899 14.1402C8.94989 14.1402 5.70989 13.2702 3.24989 11.8302V8.3802C3.24989 6.6902 4.61989 5.3302 6.30989 5.3302H18.6899Z" stroke="#A0ACBD" stroke-width="1.5" stroke-linecap="round" stroke-linejoin="round"/>
<path d="M15.9951 5.32579V4.95979C15.9951 3.73979 15.0051 2.74979 13.7851 2.74979H11.2051C9.98509 2.74979 8.99509 3.73979 8.99509 4.95979V5.32579" stroke="#A0ACBD" stroke-width="1.5" stroke-linecap="round" stroke-linejoin="round"/>
<path d="M3.2744 15.483L3.4634 17.992C3.5914 19.683 5.0004 20.99 6.6954 20.99H18.2944C19.9894 20.99 21.3984 19.683 21.5264 17.992L21.7154 15.483" stroke="#A0ACBD" stroke-width="1.5" stroke-linecap="round" stroke-linejoin="round"/>
</svg>
