<svg width="24" height="24" viewBox="0 0 24 24" fill="none" xmlns="http://www.w3.org/2000/svg">
<path d="M17.1824 4.3537C15.6646 2.83589 13.6465 2 11.5 2C9.35356 2 7.33547 2.83589 5.81769 4.3537C4.29988 5.87155 3.46399 7.88957 3.46399 10.036C3.46399 14.3783 7.5697 17.9899 9.77545 19.9302C10.082 20.1999 10.3467 20.4327 10.5576 20.6297C10.8218 20.8765 11.1609 21 11.5 21C11.8391 21 12.1782 20.8765 12.4425 20.6297C12.6534 20.4327 12.9181 20.1999 13.2246 19.9302C15.4303 17.9899 19.5361 14.3783 19.5361 10.036C19.536 7.88957 18.7002 5.87155 17.1824 4.3537ZM12.4895 19.0946C12.1762 19.3702 11.9057 19.6081 11.6827 19.8164C11.5802 19.9121 11.4198 19.9121 11.3173 19.8164C11.0943 19.6081 10.8238 19.3701 10.5105 19.0946C8.43684 17.2705 4.5769 13.875 4.5769 10.0361C4.5769 6.21868 7.68255 3.11302 11.5 3.11302C15.3173 3.11302 18.423 6.21868 18.423 10.0361C18.423 13.875 14.5631 17.2705 12.4895 19.0946Z" fill="#A0ACBD"/>
<path d="M11.5 6.19104C9.54727 6.19104 7.95862 7.77966 7.95862 9.73239C7.95862 11.6851 9.54727 13.2737 11.5 13.2737C13.4527 13.2737 15.0414 11.6851 15.0414 9.73239C15.0414 7.77966 13.4527 6.19104 11.5 6.19104ZM11.5 12.1607C10.161 12.1607 9.0716 11.0713 9.0716 9.73236C9.0716 8.39337 10.161 7.30399 11.5 7.30399C12.839 7.30399 13.9284 8.39337 13.9284 9.73236C13.9284 11.0713 12.839 12.1607 11.5 12.1607Z" fill="#A0ACBD"/>
</svg>
